<svg version="1" xmlns="http://www.w3.org/2000/svg" width="933.333" height="933.333" viewBox="0 0 700.000000 700.000000"><path d="M257.5 30.9c-2 6.5-1.1 27 1.9 41 2.9 13.2 13.8 34.9 25.6 50.6 6.5 8.6 8.8 11.4 16.3 19.8l3.4 3.8 5.9-2.9c15.1-7.6 36.9-10.9 57.4-8.7l4.5.5-4.5-2.6c-2.5-1.4-7.2-4-10.5-5.6-8.3-4.2-25.6-15.3-34.5-22.2C296.8 84.5 281 66 259.2 30c-.7-1.2-1.1-1-1.7.9z"/><path d="M43.9 47.7c9.5 26.8 25.9 58.2 44.6 85.3 21.9 32 49.9 63.5 77.7 87.8 5.4 4.7 9.8 8.7 9.8 8.9 0 .3-2.4.2-5.2-.2-2.9-.3-7.4-.7-9.9-1-2.5-.2-5.7-.6-7-.9-1.3-.3-4.6-.8-7.4-1.1-2.7-.3-8.4-1.3-12.5-2.2-4.1-.8-8.8-1.7-10.5-2-1.6-.3-7.7-1.6-13.5-3-5.8-1.3-11.4-2.7-12.5-2.9-3.6-.7-46.7-13-58.7-16.8-6.4-2-11.9-3.6-12.3-3.6-.3 0 1.5 2.8 4.2 6.1C57 235.6 96 260.6 155.5 282c5 1.8 9.4 3.6 9.9 4 .9.9-20.6 15.4-31.9 21.5-16 8.7-32.6 16-45 19.8-10.9 3.4-19.2 5.6-23.5 6.3-2.5.4-4.7.8-5 .9-.4.1-6.4 1.2-11 2-2.5.4-11.2 1.5-16.4 2-2.7.2-5.1.6-5.3.8-1.2 1.2 35.4 10.2 49.2 12.1 20.8 2.8 58.6 2.9 77 .1 1.7-.3 4.6-.7 6.5-1 12.5-1.8 32.1-6.2 39.7-8.9 2.4-.8 4.3-1.1 4.3-.7 0 1.8-7.1 11.4-12.7 17.3-22.5 23.4-59.9 45-144.3 82.9-4.7 2.1-8 3.9-7.5 4 .6 0 1.9.2 3 .5 2.8.6 36.7.5 44.5-.1 3.6-.3 9.4-.8 13-1.2 3.6-.3 7.4-.7 8.5-.8 6.7-.6 16.4-1.9 25.5-3.5 3-.5 7.3-1.2 9.5-1.5 6.6-1 39.5-8.4 47-10.6 3.9-1.2 8.4-2.5 10-2.9 11.1-3.2 39.2-13.2 50.5-18.1 7.4-3.3 14-5.9 14.6-5.9 1.2 0 3.7 8.1 5 16 1.8 10.8.1 29-4.1 46-3 11.8-11.9 38.3-17.3 51.2-2.3 5.4-3.9 9.8-3.7 9.8.3 0 6-4 12.7-8.8 6.8-4.8 17.5-12.4 23.8-16.7 31.1-21.5 52.5-43.4 61.2-62.8 1.2-2.6 2.6-4.7 3-4.7.5 0 2.8 2.1 5.1 4.7 27.4 30.9 53.7 54.4 87.3 77.9 11.3 8 27.2 18.1 35.3 22.7 18.8 10.4 18.4 10.1 24.3 18.3 17.1 23.6 29.4 50.8 40 87.9l1.4 4.9 3.7-9.6c9.2-24.1 12.8-47.1 10.3-66.2-.8-6.3-.2-7.6 4-7.6 3.7 0 16-6.9 21.2-11.8 2.7-2.6 6.7-7.5 9-11 4.2-6.5 9.9-20.7 10.8-27.1.3-2 .7-4.3 1-5.1.3-.8.8-5.2 1.1-9.8l.5-8.3-3.9 1.7c-9.4 4.1-16.5 6.3-24.8 7.6-14.8 2.3-13.8 2.9-14.1-8.2-.1-5.2-.8-12.4-1.4-16-.7-3.6-1.4-7.9-1.7-9.5-.3-1.7-.6-3.1-.8-3.3-.2-.2-2.5 1.2-5.2 3.1-8.7 6.2-21.5 11-32.4 12.1l-4.5.5 1.2-6c.7-3.3 1.5-8.7 1.8-12.2.4-3.4.9-9 1.3-12.5l.6-6.3-2.9 1.3c-1.6.6-4 1.9-5.4 2.8-5.6 3.7-19.5 8.4-28.2 9.5l-4.8.7-.1-4.9c0-6.9-.6-15.1-1.4-20.3-.7-5-3.6-16-4.2-16-.2 0-2 1.1-4.1 2.4-2 1.2-4.8 2.7-6.2 3.1-1.4.4-2.9 1.1-3.5 1.5-.9.7-2.8 1.2-9 2.8-4 1-18.1.5-22-.7-13.2-4.3-26-13.9-41.2-30.9l-6.6-7.3 2.4-1.7c9.9-7.1 25.7-12.4 47.4-15.7 2.2-.4 11.2-.8 20-1 20.6-.5 32.6 1.4 45 7.1 2.8 1.2 6.5 3.7 8.4 5.5 3.8 3.6 7.1 10.3 6.6 13.1-.2 1-.2 1.8.1 1.8 2.4 0 20.6-11.3 27.7-17.2l4.8-4 2.8 3c6.8 7 13.8 21.9 16.8 35.7l.9 4 3.8-4c6.5-6.7 11.4-13.3 15.3-20.5 2.1-3.9 4.1-7 4.4-7 .3 0 2.4 3.8 4.7 8.5 4 8.1 9.2 25.1 9.2 30.2 0 2.3.2 2.3 5.9-2.1 6.9-5.4 15.2-14.3 18.8-20.4 1.4-2.4 2.7-4.1 2.9-4 .1.2 2.3 4.4 4.8 9.4 4.7 9.5 9 21.3 10.7 29.5.6 2.7 1.5 4.9 2 4.9 1.4 0 13.3-12.2 16.6-17 8.1-12.2 12.4-26.4 13.9-46.3 1.2-15.3.5-55.4-1.1-70.2-.8-7.7-1.7-15.2-2-17.5-.2-1.4-.7-5-1-8-.4-3-.9-6.4-1.1-7.5-.2-1.1-.6-3.4-.9-5-1.3-7.4-2.8-14.5-4.6-21.2-1.1-4-2.2-8-2.4-9-2.4-11.4-13-35-20.8-46.5-8.1-12.1-8.3-12.1-8.3-3.5 0 6.4-.6 14-1.9 24.7-1.3 11.5-8.8 35.3-14.2 45-7.5 13.5-17.9 25.3-26.7 30.5-4.4 2.6-4.9 2.7-9.1 1.5-5.7-1.6-17.5-8.9-35.6-22-7.9-5.8-15.1-11-15.9-11.7-15.9-13.2-79.6-61.3-94.5-71.4-29.8-20.2-42.3-25.9-56.8-26-12.3-.1-19.6 1.5-45 9.6-9.2 3-18.6 5.7-21 6-2.3.4-4.5.9-4.9 1.1-1.9 1.2-67.1-22.4-86.8-31.3-3.6-1.7-9.4-4.3-13-5.9-13.3-5.8-43.1-21-60.5-30.9-22.5-12.8-34.4-20.3-59.8-38-17.7-12.3-25-17.7-39.6-29.3-6.2-4.9-6.2-4.7-2.2 6.5zm364.2 166c14.5 21.3 38.8 43.7 69.2 63.9 7 4.6 8.5 6 7 6.5-2.1.7-18.9.4-25.3-.5-2.5-.4-6.3-.9-8.5-1.2-19.7-2.9-46-12.2-58.1-20.5-15.8-10.8-17.1-18.1-6.1-32.9 3.4-4.7 17.5-20 18.3-20 .2 0 1.8 2.1 3.5 4.7z"/><path d="M242.9 437.9c-2 1-4.5 2.1-5.5 2.4-1.1.3-6.2 2.1-11.4 4-5.3 1.9-13.7 4.6-18.6 6.1-9.3 2.7-10.3 3-16.4 4.4-2.9.6-4.3 2-8.2 7.7-2.6 3.9-4.4 7.3-4 7.6 1.3 1.1 12 4 19.9 5.4 14 2.5 36.3 1.3 38.9-2 .6-.9 2.3-5.8 3.8-11 2.8-9.9 2.9-10.2 4.1-17.5.4-2.5.9-5.5 1.1-6.8.3-1.2.3-2.2.2-2.2-.2.1-1.9.9-3.9 1.9zM146.8 463.4c-6.4 1-7 1.4-10.9 6.1-39.8 48-66.6 116-66.2 167.5 0 13.2 2.7 32.7 4.7 34.7.6.6 47.7.6 48.3-.1.3-.2-.9-5.8-2.5-12.3-1.7-6.5-3.3-13.4-3.6-15.3-.3-1.9-.8-4.4-1-5.6-1.9-9.5-3.2-26.8-3.1-39.7.2-10.6 1.3-28.6 2-29.7.2-.3.6-2.8 1-5.5.9-7.1 5.1-24.3 8.7-35.5 5.7-18.1 15.4-39.9 26.2-59.3 2.1-3.7 3.6-6.6 3.4-6.6-.1.1-3.3.6-7 1.3zM159.2 505.2c-5 11-12.2 28.8-12.2 30.3 0 .9 10.2 4.8 18.4 7 10.7 2.9 19.7 4 32.9 4h9.8l8.8-20c4.8-11 9-20.7 9.3-21.5.3-.8.7-1.8.9-2.2.2-.4-5.9-1-13.6-1.2-7.7-.2-14.9-.7-16-.9-1.1-.3-5.3-1.3-9.3-2.1-4.1-.9-10.7-2.7-14.8-4.1-4.1-1.4-7.6-2.5-7.7-2.5-.2 0-3.1 6-6.5 13.2zM312.3 505.4c-2.8 2.4-5.9 5-6.7 5.7-.8.8-2.1 1.8-2.8 2.4-10.2 7.8-15.2 11.5-25.6 18.9l-12.4 8.8.7 3.7c1.8 9.6 8.7 26.1 16.3 39.1 13.1 22.4 42.6 54.3 73.8 79.8l10.2 8.3h53.3c29.4 0 55 0 56.9-.1h3.5l-2.5-1.3c-15.7-8.3-46.2-29.2-61.5-42.1-3.3-2.8-7.6-6.4-9.5-8.1-6.9-5.8-29.7-29.2-36.6-37.5-18.2-22.1-31.2-41.9-44.8-68.4-3.6-7.1-6.7-13-6.8-13.2-.2-.1-2.7 1.7-5.5 4zM139.9 561c-.1.5-.2 1.3-.3 1.7-.1.5-.6 3.3-1 6.3-.5 3-1 6.4-1.3 7.5-.2 1.1-.6 7.9-1 15.1l-.5 13.1 4.8 1.7c16.5 5.9 21.2 7.2 36.2 10.1 20.7 4.1 45.5 3.9 68.4-.6 9.7-1.9 23-5 23.6-5.5.2-.1-.9-2.2-2.6-4.6-4.4-6.5-17.2-30.3-17.2-32.2 0-.2-.7-1.9-1.5-3.9l-1.4-3.5-9.3 2.3c-32.2 8.1-63.1 6.1-90.2-5.9-6.7-3-6.6-2.9-6.7-1.6zM139.5 634.2c.7 3.3 2.5 11.9 2.9 14.4.6 2.9 6.5 22.6 7 23.1.3.4 145 .6 170.1.3l7-.1-7.5-7.1c-16.4-15.5-18.8-17.8-25.8-25.4l-7.3-7.9-8.7 2.3c-4.8 1.3-9.6 2.5-10.7 2.7-20.3 4.3-22.3 4.7-38.5 6.4-8.2.9-36.4.7-42-.3-1.9-.3-5.1-.8-7-1-1.9-.3-4.6-.7-6-1-1.4-.3-5-1.1-8-1.7-3-.6-9.3-2.2-14-3.5-4.7-1.4-9.3-2.8-10.3-3-1.4-.5-1.7-.1-1.2 1.8z"/></svg>